<svg width="313" height="393" viewBox="0 0 313 393" fill="none" xmlns="http://www.w3.org/2000/svg">
<path d="M170.782 207.7H141.082V45.4L159.682 27.1H135.382L95.4816 104.2H73.8816L35.4816 27.1H11.4816L30.0816 45.4V207.7H0.381643V0.699987H53.4816L84.3816 68.8H87.9817L119.482 0.699987H170.782V207.7ZM312.569 208H209.069V52.3L235.169 26.8H205.469V0.699987H312.569V26.8H238.769V100.6L260.669 78.4H312.569V104.2H238.769V181.9H312.569V208ZM170.782 392.7H141.082V230.4L159.682 212.1H135.382L95.4816 289.2H73.8816L35.4816 212.1H11.4816L30.0816 230.4V392.7H0.381643V185.7H53.4816L84.3816 253.8H87.9817L119.482 185.7H170.782V392.7ZM312.569 393H209.069V237.3L235.169 211.8H205.469V185.7H312.569V211.8H238.769V285.6L260.669 263.4H312.569V289.2H238.769V366.9H312.569V393Z" fill="black"/>
</svg>
